<svg width="24" height="24" viewBox="0 0 24 24" fill="none" xmlns="http://www.w3.org/2000/svg">
<path d="M5 7.25C4.86193 7.25 4.75 7.13807 4.75 7C4.75 6.86193 4.86193 6.75 5 6.75" stroke="#424242" stroke-width="1.2"/>
<path d="M5 7.25C5.13807 7.25 5.25 7.13807 5.25 7C5.25 6.86193 5.13807 6.75 5 6.75" stroke="#424242" stroke-width="1.2"/>
<path d="M5 10.75C4.86193 10.75 4.75 10.6381 4.75 10.5C4.75 10.3619 4.86193 10.25 5 10.25" stroke="#424242" stroke-width="1.2"/>
<path d="M5 10.75C5.13807 10.75 5.25 10.6381 5.25 10.5C5.25 10.3619 5.13807 10.25 5 10.25" stroke="#424242" stroke-width="1.2"/>
<path d="M5 14.25C4.86193 14.25 4.75 14.1381 4.75 14C4.75 13.8619 4.86193 13.75 5 13.75" stroke="#424242" stroke-width="1.2"/>
<path d="M5 14.25C5.13807 14.25 5.25 14.1381 5.25 14C5.25 13.8619 5.13807 13.75 5 13.75" stroke="#424242" stroke-width="1.2"/>
<path d="M9 10.75C8.86193 10.75 8.75 10.6381 8.75 10.5C8.75 10.3619 8.86193 10.25 9 10.25" stroke="#424242" stroke-width="1.2"/>
<path d="M9 10.75C9.13807 10.75 9.25 10.6381 9.25 10.5C9.25 10.3619 9.13807 10.25 9 10.25" stroke="#424242" stroke-width="1.2"/>
<path d="M9 7.25C8.86193 7.25 8.75 7.13807 8.75 7C8.75 6.86193 8.86193 6.75 9 6.75" stroke="#424242" stroke-width="1.2"/>
<path d="M9 7.25C9.13807 7.25 9.25 7.13807 9.25 7C9.25 6.86193 9.13807 6.75 9 6.75" stroke="#424242" stroke-width="1.2"/>
<path d="M13 7.25C12.8619 7.25 12.75 7.13807 12.75 7C12.75 6.86193 12.8619 6.75 13 6.75" stroke="#424242" stroke-width="1.2"/>
<path d="M13 7.25C13.1381 7.25 13.25 7.13807 13.25 7C13.25 6.86193 13.1381 6.75 13 6.75" stroke="#424242" stroke-width="1.2"/>
<path d="M8.25 17.25H2.25C1.85218 17.25 1.47064 17.092 1.18934 16.8107C0.908035 16.5294 0.75 16.1478 0.75 15.75V3.75C0.75 3.35218 0.908035 2.97064 1.18934 2.68934C1.47064 2.40804 1.85218 2.25 2.25 2.25H15.75C16.1478 2.25 16.5294 2.40804 16.8107 2.68934C17.092 2.97064 17.25 3.35218 17.25 3.75V8.25" stroke="#424242" stroke-width="1.5" stroke-linecap="round" stroke-linejoin="round"/>
<path d="M5.25 3.75V0.75" stroke="#424242" stroke-width="1.5" stroke-linecap="round" stroke-linejoin="round"/>
<path d="M12.75 3.75V0.75" stroke="#424242" stroke-width="1.5" stroke-linecap="round" stroke-linejoin="round"/>
<path d="M17.25 23.25C20.5637 23.25 23.25 20.5637 23.25 17.25C23.25 13.9363 20.5637 11.25 17.25 11.25C13.9363 11.25 11.25 13.9363 11.25 17.25C11.25 20.5637 13.9363 23.25 17.25 23.25Z" stroke="#424242" stroke-width="1.5" stroke-linecap="round" stroke-linejoin="round"/>
<path d="M19.902 17.2501H17.25V14.5991" stroke="#424242" stroke-width="1.5" stroke-linecap="round" stroke-linejoin="round"/>
</svg>
