<svg width="24" height="24" viewBox="0 0 24 24" fill="none" xmlns="http://www.w3.org/2000/svg">
<path d="M13.5733 12.75H11.5403C11.2287 12.7502 10.9269 12.8588 10.6867 13.0572C10.4465 13.2556 10.2827 13.5314 10.2236 13.8373C10.1645 14.1432 10.2136 14.4602 10.3626 14.7338C10.5117 15.0074 10.7512 15.2207 11.0403 15.337L13.1043 16.163C13.3933 16.2793 13.6329 16.4926 13.7819 16.7662C13.9309 17.0398 13.9801 17.3568 13.921 17.6627C13.8618 17.9686 13.6981 18.2444 13.4579 18.4428C13.2176 18.6412 12.9159 18.7498 12.6043 18.75H10.5733" stroke="#424242" stroke-width="1.5" stroke-linecap="round" stroke-linejoin="round"/>
<path d="M12.0742 12.75V12" stroke="#424242" stroke-width="1.5" stroke-linecap="round" stroke-linejoin="round"/>
<path d="M12.0742 19.5V18.75" stroke="#424242" stroke-width="1.5" stroke-linecap="round" stroke-linejoin="round"/>
<path d="M6.82422 8.25H17.3242" stroke="#424242" stroke-width="1.5" stroke-linecap="round" stroke-linejoin="round"/>
<path d="M15.63 5.03592L17.068 2.15992C17.1383 2.01916 17.1625 1.85986 17.1372 1.70458C17.112 1.54929 17.0385 1.40588 16.9273 1.29464C16.816 1.18339 16.6726 1.10995 16.5173 1.08469C16.3621 1.05944 16.2028 1.08366 16.062 1.15392L14.162 2.10192C13.9985 2.18352 13.8109 2.20265 13.6343 2.15569C13.4577 2.10874 13.3044 1.99894 13.203 1.84692L12.7 1.08392C12.6315 0.9812 12.5387 0.896978 12.4299 0.838728C12.321 0.780478 12.1995 0.75 12.076 0.75C11.9526 0.75 11.831 0.780478 11.7221 0.838728C11.6133 0.896978 11.5205 0.9812 11.452 1.08392L10.943 1.84692C10.8418 1.99911 10.6884 2.10905 10.5118 2.15602C10.3352 2.20298 10.1474 2.18374 9.98401 2.10192L8.08701 1.15392C7.94621 1.08399 7.787 1.06001 7.63185 1.08536C7.47669 1.11071 7.3334 1.18412 7.22218 1.29523C7.11096 1.40634 7.03741 1.54956 7.0119 1.70469C6.9864 1.85982 7.01022 2.01904 7.08001 2.15992L8.49001 4.97992" stroke="#424242" stroke-width="1.5" stroke-linecap="round" stroke-linejoin="round"/>
<path d="M7.2364 10.5L4.4764 13.7C3.80101 14.5779 3.38492 15.6274 3.27525 16.7297C3.16557 17.8319 3.3667 18.9428 3.85585 19.9366C4.345 20.9304 5.10263 21.7674 6.04296 22.3528C6.98328 22.9382 8.06874 23.2487 9.1764 23.249H14.9664C16.0741 23.2487 17.1595 22.9382 18.0998 22.3528C19.0402 21.7674 19.7978 20.9304 20.287 19.9366C20.7761 18.9428 20.9772 17.8319 20.8676 16.7297C20.7579 15.6274 20.3418 14.5779 19.6664 13.7L16.9064 10.5" stroke="#424242" stroke-width="1.5" stroke-linecap="round" stroke-linejoin="round"/>
</svg>
