<svg width="66" height="66" viewBox="0 0 66 66" fill="none" xmlns="http://www.w3.org/2000/svg">
<rect x="5" y="5" width="56" height="56" rx="28" fill="#FF1616" fill-opacity="0.08"/>
<rect x="5" y="5" width="56" height="56" rx="28" stroke="#FF1616" stroke-opacity="0.04" stroke-width="10"/>
<path d="M21.333 27.1665L30.8587 33.8345C31.6301 34.3745 32.0158 34.6445 32.4353 34.749C32.8059 34.8414 33.1935 34.8414 33.564 34.749C33.9836 34.6445 34.3692 34.3745 35.1406 33.8345L44.6663 27.1665M26.933 42.3332H39.0663C41.0265 42.3332 42.0066 42.3332 42.7553 41.9517C43.4139 41.6161 43.9493 41.0807 44.2849 40.4221C44.6663 39.6734 44.6663 38.6934 44.6663 36.7332V29.2665C44.6663 27.3063 44.6663 26.3262 44.2849 25.5775C43.9493 24.919 43.4139 24.3835 42.7553 24.048C42.0066 23.6665 41.0265 23.6665 39.0663 23.6665H26.933C24.9728 23.6665 23.9927 23.6665 23.244 24.048C22.5855 24.3835 22.05 24.919 21.7145 25.5775C21.333 26.3262 21.333 27.3063 21.333 29.2665V36.7332C21.333 38.6934 21.333 39.6734 21.7145 40.4221C22.05 41.0807 22.5855 41.6161 23.244 41.9517C23.9927 42.3332 24.9728 42.3332 26.933 42.3332Z" stroke="#FF1616" stroke-width="2" stroke-linecap="round" stroke-linejoin="round"/>
</svg>
