<svg width="24" height="24" viewBox="0 0 24 24" fill="none" xmlns="http://www.w3.org/2000/svg">
<path d="M12.0004 14.8799C13.591 14.8799 14.8804 13.5905 14.8804 11.9999C14.8804 10.4093 13.591 9.1199 12.0004 9.1199C10.4098 9.1199 9.12039 10.4093 9.12039 11.9999C9.12039 13.5905 10.4098 14.8799 12.0004 14.8799Z" stroke="#424242" stroke-width="1.5" stroke-linecap="round" stroke-linejoin="round"/>
<path d="M18.4586 14.6181C18.3424 14.8813 18.3077 15.1733 18.3591 15.4564C18.4104 15.7395 18.5454 16.0008 18.7466 16.2064L18.7989 16.2588C18.9612 16.4209 19.09 16.6134 19.1778 16.8253C19.2656 17.0372 19.3109 17.2643 19.3109 17.4937C19.3109 17.7231 19.2656 17.9502 19.1778 18.1621C19.09 18.374 18.9612 18.5665 18.7989 18.7286C18.6368 18.8909 18.4443 19.0197 18.2324 19.1075C18.0205 19.1953 17.7934 19.2405 17.564 19.2405C17.3346 19.2405 17.1075 19.1953 16.8956 19.1075C16.6837 19.0197 16.4912 18.8909 16.3291 18.7286L16.2768 18.6763C16.0711 18.4751 15.8098 18.3401 15.5267 18.2888C15.2436 18.2374 14.9516 18.2721 14.6884 18.3883C14.4303 18.4989 14.2101 18.6826 14.0551 18.9167C13.9 19.1509 13.8168 19.4253 13.8157 19.7061V19.8544C13.8157 20.3174 13.6318 20.7613 13.3044 21.0887C12.9771 21.416 12.5331 21.5999 12.0702 21.5999C11.6073 21.5999 11.1633 21.416 10.836 21.0887C10.5087 20.7613 10.3248 20.3174 10.3248 19.8544V19.7759C10.318 19.487 10.2245 19.2069 10.0564 18.9719C9.88831 18.7368 9.6534 18.5578 9.38221 18.4581C9.11898 18.3419 8.82699 18.3073 8.54388 18.3586C8.26077 18.4099 7.99953 18.5449 7.79385 18.7461L7.74148 18.7984C7.57938 18.9607 7.38687 19.0895 7.17498 19.1773C6.96308 19.2652 6.73595 19.3104 6.50657 19.3104C6.27719 19.3104 6.05006 19.2652 5.83817 19.1773C5.62627 19.0895 5.43377 18.9607 5.27166 18.7984C5.10938 18.6363 4.98063 18.4438 4.8928 18.2319C4.80496 18.0201 4.75974 17.7929 4.75974 17.5635C4.75974 17.3342 4.80496 17.107 4.8928 16.8951C4.98063 16.6832 5.10938 16.4907 5.27166 16.3286L5.32403 16.2763C5.52522 16.0706 5.66019 15.8093 5.71152 15.5262C5.76285 15.2431 5.7282 14.9511 5.61203 14.6879C5.5014 14.4298 5.3177 14.2096 5.08356 14.0546C4.84942 13.8995 4.57504 13.8163 4.29421 13.8152H4.14585C3.68292 13.8152 3.23896 13.6313 2.91162 13.3039C2.58429 12.9766 2.40039 12.5326 2.40039 12.0697C2.40039 11.6068 2.58429 11.1628 2.91162 10.8355C3.23896 10.5082 3.68292 10.3243 4.14585 10.3243H4.22439C4.51326 10.3175 4.79341 10.224 5.02843 10.0559C5.26345 9.88782 5.44247 9.65291 5.54221 9.38172C5.65838 9.11849 5.69304 8.8265 5.6417 8.54339C5.59037 8.26028 5.4554 7.99904 5.25421 7.79336L5.20185 7.74099C5.03956 7.57889 4.91082 7.38638 4.82298 7.17449C4.73514 6.96259 4.68993 6.73546 4.68993 6.50608C4.68993 6.2767 4.73514 6.04957 4.82298 5.83768C4.91082 5.62578 5.03956 5.43328 5.20185 5.27118C5.36395 5.10889 5.55645 4.98015 5.76835 4.89231C5.98024 4.80447 6.20737 4.75926 6.43675 4.75926C6.66613 4.75926 6.89326 4.80447 7.10516 4.89231C7.31705 4.98015 7.50956 5.10889 7.67166 5.27118L7.72403 5.32354C7.92971 5.52473 8.19095 5.6597 8.47406 5.71103C8.75717 5.76237 9.04916 5.72771 9.31239 5.61154H9.38221C9.64034 5.50091 9.86048 5.31722 10.0155 5.08307C10.1706 4.84893 10.2538 4.57455 10.2549 4.29372V4.14536C10.2549 3.68243 10.4388 3.23847 10.7662 2.91113C11.0935 2.5838 11.5375 2.3999 12.0004 2.3999C12.4633 2.3999 12.9073 2.5838 13.2346 2.91113C13.5619 3.23847 13.7458 3.68243 13.7458 4.14536V4.2239C13.747 4.50473 13.8302 4.77911 13.9852 5.01325C14.1403 5.2474 14.3604 5.43109 14.6186 5.54172C14.8818 5.65789 15.1738 5.69255 15.4569 5.64122C15.74 5.58988 16.0013 5.45492 16.2069 5.25372L16.2593 5.20136C16.4214 5.03907 16.6139 4.91033 16.8258 4.82249C17.0377 4.73465 17.2648 4.68944 17.4942 4.68944C17.7236 4.68944 17.9507 4.73465 18.1626 4.82249C18.3745 4.91033 18.567 5.03907 18.7291 5.20136C18.8914 5.36346 19.0201 5.55597 19.108 5.76786C19.1958 5.97976 19.241 6.20689 19.241 6.43627C19.241 6.66565 19.1958 6.89278 19.108 7.10467C19.0201 7.31657 18.8914 7.50907 18.7291 7.67118L18.6768 7.72354C18.4756 7.92922 18.3406 8.19046 18.2893 8.47357C18.2379 8.75668 18.2726 9.04867 18.3888 9.3119V9.38172C18.4994 9.63985 18.6831 9.85999 18.9172 10.0151C19.1514 10.1701 19.4257 10.2533 19.7066 10.2544H19.8549C20.3179 10.2544 20.7618 10.4383 21.0892 10.7657C21.4165 11.093 21.6004 11.537 21.6004 11.9999C21.6004 12.4628 21.4165 12.9068 21.0892 13.2341C20.7618 13.5615 20.3179 13.7454 19.8549 13.7454H19.7764C19.4956 13.7465 19.2212 13.8297 18.987 13.9848C18.7529 14.1398 18.5692 14.36 18.4586 14.6181Z" stroke="#424242" stroke-width="1.5" stroke-linecap="round" stroke-linejoin="round"/>
</svg>
